<?xml version="1.0" encoding="UTF-8" standalone="no"?>
<!-- Created with Inkscape (http://www.inkscape.org/) -->

<svg
   version="1.1"
   id="svg9"
   width="205.24516"
   height="230.76564"
   viewBox="0 0 205.24516 230.76564"
   sodipodi:docname="imbateam-soldier2a.svg"
   inkscape:version="1.1.1 (3bf5ae0d25, 2021-09-20)"
   xmlns:inkscape="http://www.inkscape.org/namespaces/inkscape"
   xmlns:sodipodi="http://sodipodi.sourceforge.net/DTD/sodipodi-0.dtd"
   xmlns="http://www.w3.org/2000/svg"
   xmlns:svg="http://www.w3.org/2000/svg">
  <defs
     id="defs13" />
  <sodipodi:namedview
     id="namedview11"
     pagecolor="#ffffff"
     bordercolor="#666666"
     borderopacity="1.0"
     inkscape:pageshadow="2"
     inkscape:pageopacity="0.0"
     inkscape:pagecheckerboard="0"
     showgrid="false"
     fit-margin-top="0"
     fit-margin-left="0"
     fit-margin-right="0"
     fit-margin-bottom="0"
     inkscape:zoom="1.9347384"
     inkscape:cx="128.958"
     inkscape:cy="119.13755"
     inkscape:window-width="1920"
     inkscape:window-height="1001"
     inkscape:window-x="-9"
     inkscape:window-y="-9"
     inkscape:window-maximized="1"
     inkscape:current-layer="g15" />
  <g
     inkscape:groupmode="layer"
     inkscape:label="Image"
     id="g15"
     transform="translate(-0.52558791,-0.68512876)">
    <path
       style="fill:#ffffff;fill-opacity:1;stroke-width:1.88235"
       d="M 0.94612001,223.24573 C 2.84892,209.17639 3.68314,206.77514 6.66819,206.77514 c 2.45575,0 2.7134,1.73053 1.61144,10.82353 -1.51758,12.52269 -1.98562,13.64706 -5.68079,13.64706 -2.13208999,0 -2.49626999,-1.7628 -1.65271999,-8 z M 13.08512,227.74375 c 0,-1.92608 0.52047,-7.29928 1.15661,-11.94041 l 1.15662,-8.43844 8.24923,-0.12461 c 4.53707,-0.0685 8.71469,0.62843 9.28359,1.54892 0.57444,0.92948 2.55862,0.72173 4.46245,-0.46724 6.0688,-3.79012 9.57385,-0.64411 9.57385,8.59309 0,10.20589 -1.42867,14.33067 -4.96362,14.33067 -2.02701,0 -2.55032,-2.26921 -2.15155,-9.32973 0.8661,-15.33498 -3.5631,-12.69534 -6.96898,4.15326 -0.62057,3.06995 -2.27951,5.17647 -4.07657,5.17647 -2.54169,0 -2.83189,-1.49472 -1.80019,-9.27205 2.09175,-15.76844 -4.27974,-13.80189 -7.17074,2.21323 -1.31785,7.30042 -6.7507,10.1629 -6.7507,3.55684 z m 38.39812,-0.0787 c 0.4526,-1.65419 1.37677,-7.87821 2.05372,-13.83115 l 1.23082,-10.82347 H 29.22056 c -21.06471,0 -25.54721,-0.479 -25.54721,-2.73 0,-1.50149 1.06705,-3.40738 2.37123,-4.23529 1.30417,-0.82792 4.70443,-5.1053 7.55612,-9.5053 2.85169,-4.4 5.64639,-8 6.21045,-8 1.08747,0 0.66505,0.81305 -5.95296,11.45805 -5.60465,9.015 -3.6385,12.19889 6.07292,9.83424 5.98754,-1.45792 7.18929,-2.51499 6.80526,-5.98596 -0.71483,-6.46079 4.73723,-15.69406 8.56426,-14.5039 1.75794,0.54669 4.41237,0.23081 5.89874,-0.70193 2.23974,-1.40553 2.28085,-2.20397 0.2401,-4.66291 -2.00265,-2.41306 -2.00772,-2.967 -0.0272,-2.967 1.33937,0 3.83103,-1.26321 5.53704,-2.80712 4.21364,-3.81328 11.21539,-0.45712 16.7909,8.0484 2.54676,3.88512 5.20502,5.96755 6.82445,5.34611 1.45899,-0.55987 3.8331,0.66731 5.27581,2.72708 4.51447,6.4453 13.694,7.83887 22.39521,3.39983 10.25761,-5.23304 43.25561,-8.66229 50.20569,-5.21751 4.37929,2.17056 2.66183,2.56708 -16.76804,3.87117 -24.75473,1.6615 -33.75539,3.76239 -38.47865,8.98154 -3.22565,3.56431 -3.13477,3.7314 2.98767,5.49355 5.04424,1.45182 2.05452,1.85157 -14.86196,1.98718 -16.79696,0.13459 -21.17647,0.71379 -21.17647,2.80026 0,1.74841 1.96451,2.53741 5.85846,2.35294 9.66047,-0.45767 12.01789,8.57907 4.80914,18.43498 -3.56296,4.87132 -20.6214,5.96241 -19.3283,1.23627 z m 15.41608,-6.76811 c 0.64902,-2.58592 0.63404,-6.12455 -0.0333,-7.86362 -1.04985,-2.73583 -1.56782,-2.79981 -3.84384,-0.47479 -1.44678,1.47793 -3.2016,5.01655 -3.89961,7.86361 -1.07881,4.4003 -0.6794,5.17647 2.6638,5.17647 2.6243,0 4.32555,-1.56441 5.11295,-4.70167 z m 14.42109,9.10214 c -1.29412,-0.52219 -2.35294,-4.11944 -2.35294,-7.99387 0,-8.85985 6.1525,-15.23008 14.70955,-15.23008 5.72428,0 5.99633,0.33604 5.99633,7.40687 0,10.3048 -3.11193,18.06645 -6.21197,15.49363 -1.50778,-1.25133 -3.40009,-1.33718 -5.14528,-0.23341 -3.0254,1.91347 -3.53345,1.9539 -6.99569,0.55686 z m 8.55936,-6.76388 c 2.61928,-3.15605 4.93889,-12.69536 3.08704,-12.69536 -3.25212,0 -8.35228,6.49999 -8.35228,10.64469 0,4.8521 2.22202,5.71753 5.26524,2.05067 z m 18.24125,6.09109 c -0.65245,-1.0557 -1.40648,-6.34982 -1.67562,-11.76471 -0.50461,-10.15228 2.77613,-18.31586 7.3607,-18.31586 1.3231,0 2.89322,-1.27059 3.48913,-2.82353 1.48394,-3.86708 10.01042,-3.56675 12.2479,0.43142 1.72646,3.08501 2.00932,3.08501 5.41822,0 4.63757,-4.19695 19.30024,-4.55194 19.30024,-0.46728 0,3.5448 -4.81981,4.61868 -23.37836,5.20885 -9.89825,0.31477 -15.16935,1.26474 -15.68626,2.82701 -0.42819,1.29412 0.56265,2.35294 2.20187,2.35294 4.09575,0 3.73644,2.38696 -0.78431,5.21023 -4.15515,2.59493 -5.28063,12.79427 -1.54908,14.03811 2.84858,0.94954 0.26576,5.22225 -3.15681,5.22225 -1.43074,0 -3.13517,-0.86375 -3.78762,-1.91943 z m 17.43468,-0.1137 c -4.62736,-2.69519 -4.34609,-13.85607 0.47059,-18.67275 4.41606,-4.41606 11.7588,-4.91748 14.9904,-1.02362 3.00584,3.62179 1.01145,6.46876 -6.82549,9.74324 -7.10597,2.96906 -6.68971,7.21574 0.57124,5.82773 6.36055,-1.21589 7.57286,2.01169 1.60751,4.2797 -6.00179,2.28188 -6.64739,2.27268 -10.81425,-0.15435 z m 9.52942,-16.67275 c 0.47058,-1.41176 -0.2353,-2.11765 -1.64706,-1.64706 -1.35882,0.45293 -2.84119,1.93529 -3.29412,3.29412 -0.47059,1.41176 0.23529,2.11765 1.64706,1.64706 1.35881,-0.45295 2.84118,-1.93531 3.29412,-3.29412 z m 11.71327,15.06492 c -2.99047,-5.58778 -2.3782,-8.73607 2.92464,-15.03813 3.75817,-4.46634 6.40374,-5.7915 11.56227,-5.7915 h 6.68906 l -1.21373,11.61224 c -1.3622,13.03286 -1.95265,14.26099 -5.45786,11.3519 -1.5664,-1.29999 -3.46539,-1.40801 -5.22197,-0.29705 -4.27808,2.70573 -7.15584,2.13608 -9.28241,-1.83746 z m 10.72554,-4.35904 c 2.70731,-3.4602 4.15204,-10.67245 2.35975,-11.78014 -2.58017,-1.59463 -7.50445,4.67953 -7.50445,9.56166 0,4.97391 2.23483,5.93762 5.1447,2.21848 z m 14.69922,-2.65538 c 0.73332,-6.04542 1.69843,-11.39226 2.14468,-11.88186 1.64321,-1.8028 14.60323,-1.70786 16.80946,0.12311 1.53312,1.27237 2.67761,1.2453 3.49839,-0.0826 0.67091,-1.08557 3.32793,-1.97376 5.90446,-1.97376 4.55062,0 4.66859,0.33594 4.12421,11.74581 -0.44436,9.31364 -1.22718,11.87277 -3.7805,12.35906 -2.81067,0.53528 -3.0765,-0.59918 -2.09074,-8.92228 0.75602,-6.38349 0.44231,-9.53559 -0.94899,-9.53559 -3.03607,0 -5.97548,6.4208 -5.97548,13.05273 0,4.46949 -0.82893,5.7708 -3.67602,5.7708 -3.30495,0 -3.56349,-0.95006 -2.56132,-9.41176 0.73118,-6.17376 0.41509,-9.41177 -0.91878,-9.41177 -2.8426,0 -4.68324,3.47319 -5.94082,11.20992 -0.71175,4.37885 -2.24051,6.8558 -4.49991,7.29092 -3.11055,0.59902 -3.30061,-0.34125 -2.08864,-10.33269 z M 72.01838,176.63943 c -2.26906,-0.91398 -5.49704,-3.75494 -7.1733,-6.31323 -3.14726,-4.80333 -2.69427,-8.72628 3.15228,-27.29906 1.90101,-6.03895 2.33892,-6.29005 9.33352,-5.35187 5.84085,0.78342 7.71754,0.27693 9.19365,-2.48119 2.85242,-5.3298 2.45812,-6.24542 -6.68223,-15.51674 -7.27476,-7.37899 -8.36064,-9.44256 -7.3445,-13.95719 2.6802,-11.907966 13.16912,-20.172436 15.29321,-12.049886 1.1871,4.53947 3.85482,4.89926 8.76116,1.18164 2.36167,-1.78948 3.67755,-5.67128 4.12729,-12.17542 0.62755,-9.0757 -1.71195,-12.92225 -4.09011,-6.72486 -0.59592,1.55294 -2.7903,2.82353 -4.8764,2.82353 -3.50072,0 -3.57837,-0.32311 -1.008,-4.19429 1.53169,-2.30685 4.897,-5.48332 7.47847,-7.05882 2.58146,-1.5755 6.94758,-4.45095 9.70248,-6.38989 3.8916,-2.73896 7.30206,-3.33517 15.28912,-2.67283 6.35292,0.52684 10.61722,0.0758 11.16237,-1.18053 0.52109,-1.20094 1.7356,-0.68479 2.9673,1.26106 1.14683,1.81177 3.41736,3.29412 5.04561,3.29412 2.41813,0 2.53118,0.51728 0.61717,2.82353 -1.28883,1.55294 -3.39867,2.82353 -4.68853,2.82353 -1.32222,0 -2.79655,3.36513 -3.37995,7.71473 -0.65834,4.90819 -2.49308,8.73617 -5.04347,10.52253 -3.14744,2.20455 -3.54104,3.3713 -1.83201,5.43055 1.74488,2.10246 1.10921,3.01234 -3.20439,4.5867 -13.13518,4.794016 -15.36984,6.154856 -17.39088,10.590546 -1.94819,4.27582 -1.43784,5.38794 5.55648,12.10809 8.21257,7.89063 9.54087,8.39836 14.71997,5.6266 4.6637,-2.49595 17.49335,2.239 19.74605,7.28754 1.29597,2.90434 0.92106,5.86861 -1.3426,10.61557 -4.60409,9.65485 -3.94301,9.83616 4.09959,1.12446 7.25049,-7.85368 13.46562,-10.22155 13.46562,-5.13018 0,4.78855 3.91915,5.32813 8.3648,1.15164 l 4.32141,-4.05975 1.05962,4.05194 c 0.58816,2.24911 1.95601,3.49792 3.07433,2.80676 1.26763,-0.78344 1.76625,0.36783 1.34466,3.10473 -0.5638,3.66001 -1.83349,4.36911 -8.00569,4.47112 -4.03457,0.0666 -10.61726,1.2259 -14.62817,2.57607 -11.06112,3.72341 -60.05855,5.79243 -61.97743,2.61713 -2.39934,-3.97032 -6.862,-2.89474 -9.19015,2.21498 -1.17928,2.58824 -2.85523,4.70589 -3.72435,4.70589 -0.86911,0 -1.58021,1.72391 -1.58021,3.83092 0,3.24764 0.57322,3.52416 3.76471,1.81613 4.84013,-2.59036 4.75318,-1.18454 -0.35399,5.72328 -4.26503,5.76877 -7.09163,6.50328 -14.12451,3.67042 z m 8.83144,-13.1584 c 0,-1.0353 -1.32058,-1.88235 -2.93462,-1.88235 -1.61404,0 -2.41111,0.84705 -1.77126,1.88235 0.63985,1.03529 1.96042,1.88235 2.93462,1.88235 0.97419,0 1.77126,-0.84706 1.77126,-1.88235 z m 5.64706,-13.03985 c 0,-0.96015 -2.32941,-3.58214 -5.17647,-5.82664 -4.52659,-3.56858 -5.25506,-3.69253 -5.8025,-0.98737 -0.34431,1.70144 0.3947,4.32343 1.64225,5.82664 2.50682,3.02052 9.33672,3.74279 9.33672,0.98737 z m 52.70588,-11.43074 c 0,-1.03529 -0.37353,-1.88235 -0.83008,-1.88235 -0.45654,0 -1.3536,0.84706 -1.99345,1.88235 -0.63985,1.03529 -0.26631,1.88235 0.83008,1.88235 1.0964,0 1.99345,-0.84706 1.99345,-1.88235 z m -4.90727,-2.97749 c 2.0115,-5.24188 1.22669,-10.19898 -1.61474,-10.19898 -3.02297,0 -6.65446,5.58231 -6.65446,10.2292 0,3.85568 6.78756,3.83087 8.2692,-0.0301 z M 92.14394,111.51493 c 0,-3.00969 -4.84885,-3.55416 -6.58824,-0.73978 -0.63984,1.03529 -0.66271,2.69242 -0.0508,3.6825 1.54836,2.5053 6.63904,0.24889 6.63904,-2.94272 z m 33.88235,-30.027336 c 0,-1.61404 -0.86087,-2.40257 -1.91306,-1.75229 -1.05218,0.65029 -1.42572,1.97086 -0.83008,2.93462 1.61362,2.61091 2.74314,2.12407 2.74314,-1.18233 z m 5.64706,-11.07194 c 0,-0.45655 -0.84706,-1.35359 -1.88235,-1.99345 -1.0353,-0.63984 -1.88236,-0.2663 -1.88236,0.83009 0,1.0964 0.84706,1.99345 1.88236,1.99345 1.03529,0 1.88235,-0.37354 1.88235,-0.83009 z m 64.60764,95.888906 c 0.67831,-4.14118 1.2426,-10.28236 1.25399,-13.64706 0.0256,-7.53813 4.89805,-8.38726 7.58437,-1.32173 2.11127,5.55307 -1.12128,15.12595 -6.6437,19.67467 -3.24113,2.66967 -3.36072,2.41321 -2.19466,-4.70588 z m -41.82718,-42.88433 c 4.16279,-2.79609 6.60397,-6.08228 6.99162,-9.41177 0.32759,-2.81362 1.71933,-5.11567 3.09273,-5.11567 4.49895,0 6.71838,-11.757696 2.68945,-14.247706 -1.15106,-0.71138 -2.75968,-0.21441 -3.57474,1.10437 -0.81506,1.3188 -2.89169,1.85683 -4.61474,1.19564 -4.94089,-1.896 -1.43516,-4.99347 5.65162,-4.99347 7.22556,0 9.17027,3.6825 8.06347,15.268946 -0.37719,3.94842 0.42735,7.18814 2.11198,8.50453 2.2893,1.78889 1.84111,2.89991 -2.82353,6.99934 -4.31985,3.7964 -7.58153,4.88606 -14.76433,4.9324 l -9.21956,0.0595 z M 183.7407,104.7208 c -0.63341,-5.348226 -0.70281,-10.172926 -0.15416,-10.721526 1.92449,-1.92449 4.5001,4.60933 4.52864,11.488306 0.0444,10.69907 -3.08136,10.15117 -4.37442,-0.76678 z m -40.7212,-9.882956 c -2.05196,-2.47245 -1.66519,-2.88622 2.69788,-2.88622 3.095,0 4.8009,0.87697 4.34812,2.23529 -1.16951,3.50856 -4.42481,3.80928 -7.046,0.65093 z M 117.91987,8.9833736 c 1.8703,-3.18548 4.6034,-6.78548 6.07356,-8.00000003 1.47017,-1.21452 0.29878,1.39178003 -2.60308,5.79178003 -6.0932,9.2389404 -8.49614,10.7679004 -3.47048,2.20822 z"
       id="path99" />
  </g>
</svg>
